<svg width="41" height="41" viewBox="0 0 41 41" fill="none" xmlns="http://www.w3.org/2000/svg">
<rect width="40.1138" height="40.1138" rx="20.0569" fill="#C3C3FF"/>
<path fill-rule="evenodd" clip-rule="evenodd" d="M15.8539 11.6469C15.9766 11.5245 16.1009 11.4037 16.2268 11.2845C17.2946 14.6814 19.8638 17.6521 22.3978 19.8313C23.6809 20.9379 25.0594 21.9288 26.5171 22.7925C27.3043 23.2657 28.1304 23.6709 28.9864 24.0037C28.8621 24.1344 28.7346 24.2662 28.6039 24.3969C24.7438 28.2569 18.6971 29.4289 13.6928 29.5882C13.7714 31.2011 13.9467 32.6174 14.1443 33.6863C14.1825 33.8812 14.1816 34.0817 14.1417 34.2763C14.1019 34.4708 14.0239 34.6556 13.9122 34.8198C13.8005 34.984 13.6573 35.1245 13.491 35.233C13.3247 35.3416 13.1386 35.4161 12.9433 35.4523C12.748 35.4884 12.5475 35.4855 12.3533 35.4437C12.1592 35.4019 11.9753 35.322 11.8122 35.2087C11.6491 35.0953 11.5101 34.9508 11.4032 34.7834C11.2963 34.616 11.2237 34.4291 11.1895 34.2335C10.959 32.9893 10.7645 31.3775 10.6827 29.568C9.11829 29.5047 7.55995 29.3357 6.01833 29.0623C5.82269 29.0281 5.63578 28.9555 5.46839 28.8486C5.301 28.7417 5.15646 28.6027 5.04312 28.4396C4.92978 28.2765 4.8499 28.0926 4.80809 27.8985C4.76628 27.7043 4.76337 27.5038 4.79953 27.3085C4.8357 27.1132 4.91021 26.9271 5.01877 26.7608C5.12733 26.5945 5.26779 26.4513 5.43201 26.3396C5.59623 26.228 5.78096 26.1499 5.97552 26.1101C6.17008 26.0702 6.37061 26.0693 6.56551 26.1075C7.9199 26.3468 9.28849 26.4973 10.6625 26.558C10.8208 21.5547 11.9938 15.5069 15.8539 11.6469ZM30.9581 21.5046C30.9578 21.505 30.9576 21.5054 30.9573 21.5058L30.9584 21.5047C30.9583 21.5047 30.9582 21.5046 30.9581 21.5046ZM30.9581 21.5046C31.0322 21.3881 31.1063 21.2716 31.1773 21.1541C32.7976 18.4883 33.0005 15.4145 32.8528 13.1354C32.7691 11.8806 32.5703 10.6362 32.2589 9.41773C32.2363 9.32721 32.2153 9.25343 32.1997 9.19861C32.1978 9.19165 32.1959 9.18501 32.1941 9.17867L32.1739 9.1096L32.1675 9.08835L32.1654 9.08198L32.1643 9.08092V9.07879L30.8861 9.47298L32.1633 9.07773L31.9306 8.32016L31.173 8.08748L30.7778 9.3646L31.1719 8.08642L31.1688 8.08535L31.1613 8.08216L31.1411 8.07685L31.0721 8.05667C30.7124 7.95633 30.3495 7.86774 29.9841 7.79104C29.0386 7.59232 28.0804 7.4606 27.1164 7.39685C24.8373 7.24917 21.7625 7.45316 19.0977 9.07241C18.9791 9.1445 18.8615 9.21817 18.745 9.29341C18.8221 9.42501 18.8787 9.56761 18.9128 9.71629C19.5663 12.5649 21.7933 15.3465 24.3581 17.5522C25.5048 18.5412 26.7364 19.4272 28.0386 20.2C29.1999 20.881 30.0755 21.238 30.5143 21.3326C30.6746 21.3676 30.8232 21.4271 30.9581 21.5046ZM17.8886 19.6083C17.8886 19.6104 17.8886 19.6125 17.8886 19.6145L17.8875 19.6156C17.8879 19.6111 17.8882 19.6087 17.8886 19.6083ZM17.448 18.552C17.7285 18.8323 17.8868 19.212 17.8886 19.6083C17.8891 19.6078 17.8898 19.6109 17.8915 19.6177C17.8919 19.6193 17.8923 19.6211 17.8928 19.623C17.9024 19.6709 17.9396 19.8377 18.0639 20.1171C18.2137 20.4518 18.4379 20.8396 18.728 21.1998C19.3368 21.9616 20.0136 22.3622 20.6351 22.3632C21.0337 22.3631 21.4161 22.5213 21.698 22.803C21.98 23.0848 22.1384 23.467 22.1386 23.8656C22.1387 24.2642 21.9805 24.6465 21.6988 24.9285C21.417 25.2104 21.0348 25.3689 20.6362 25.369C18.7067 25.369 17.2575 24.1748 16.382 23.0783C15.9551 22.5454 15.5974 21.9606 15.3173 21.3379C15.0868 20.8184 14.8817 20.1925 14.8828 19.6156C14.8826 19.217 15.0408 18.8347 15.3226 18.5527C15.6043 18.2708 15.9865 18.1123 16.3851 18.1122C16.7837 18.112 17.1661 18.2702 17.448 18.552ZM23.9136 12.7094C23.9136 13.1079 24.0719 13.4901 24.3537 13.7719C24.6355 14.0537 25.0177 14.212 25.4162 14.212C25.8147 14.212 26.1969 14.0537 26.4787 13.7719L26.4797 13.7708C26.7615 13.489 26.9198 13.1068 26.9198 12.7083C26.9198 12.3098 26.7615 11.9276 26.4797 11.6458C26.1979 11.364 25.8158 11.2057 25.4172 11.2057C25.0187 11.2057 24.6365 11.364 24.3547 11.6458L24.3537 11.6469C24.0719 11.9287 23.9136 12.3109 23.9136 12.7094Z" fill="white"/>
</svg>
